# AST/ASF file generated using VICON BodyLanguage
# -----------------------------------------------
:version 1.10
:name VICON
:units
  mass 1.0
  length 0.45
  angle deg
:documentation
   .ast/.asf automatically generated from VICON data using
   VICON BodyBuilder and BodyLanguage model FoxedUp or BRILLIANT.MOD
:root
   order TX TY TZ RX RY RZ
   axis XYZ
   position 0 0 0  
   orientation 0 0 0 
:bonedata
  begin
     id 1 
     name lhipjoint
     direction 0.734343 -0.627749 0.258209 
     length 2.5437 
     axis 0 0 0  XYZ
  end
  begin
     id 2 
     name lfemur
     direction 0.34202 -0.939693 0  
     length 6.7391  
     axis 0 0 20  XYZ
    dof rx ry rz
    limits (-160.0 20.0)
           (-70.0 70.0)
           (-60.0 70.0)
  end
  begin
     id 3 
     name ltibia
     direction 0.34202 -0.939693 0   
     length 7.21536   
     axis 0 0 20   XYZ
    dof rx
    limits (-10.0 170.0)
  end
  begin
     id 4 
     name lfoot
     direction 0.0489572 -0.134509 0.989702   
     length 1.61313   
     axis -90 7.62852e-016 20   XYZ
    dof rx rz
    limits (-45.0 90.0)
           (-70.0 20.0)
  end
  begin
     id 5 
     name ltoes
     direction 1.53451e-011 -4.21692e-011 1   
     length 0.823104   
     axis -90 7.62852e-016 20   XYZ
    dof rx
    limits (-90.0 20.0)
  end
  begin
     id 6 
     name rhipjoint
     direction -0.746398 -0.615468 0.253157   
     length 2.59446  
     axis 0 0 0  XYZ 
  end
  begin
     id 7 
     name rfemur
     direction -0.34202 -0.939693 0   
     length 6.7075   
     axis 0 0 -20   XYZ
    dof rx ry rz
    limits (-160.0 20.0)
           (-70.0 70.0)
           (-70.0 60.0)
  end
  begin
     id 8 
     name rtibia
     direction -0.34202 -0.939693 0   
     length 7.27262   
     axis 0 0 -20   XYZ
    dof rx
    limits (-10.0 170.0)
 end
 begin
     id 9 
     name rfoot
     direction -0.0455203 -0.125066 0.991104   
     length 1.91095  
     axis -90 -7.62852e-016 -20   XYZ
    dof rx rz
    limits (-45.0 90.0)
           (-20.0 70.0)
  end
  begin
     id 10 
     name rtoes
     direction -1.53601e-011 -4.21913e-011 1   
     length 0.969037   
     axis -90 -7.62852e-016 -20   XYZ
    dof rx
    limits (-90.0 20.0)
  end
  begin
     id 11 
     name lowerback
     direction 0.0181546 0.999122 -0.0377542   
     length 1.99916   
     axis 0 0 0   XYZ
    dof rx ry rz
    limits (-20.0 45.0)
           (-30.0 30.0)
           (-30.0 30.0)
  end
  begin
     id 12 
     name upperback
     direction 0.0203486 0.99589 0.0882534   
     length 1.951   
     axis 0 0 0   XYZ
    dof rx ry rz
    limits (-20.0 45.0)
           (-30.0 30.0)
           (-30.0 30.0)
  end
  begin
     id 13 
     name thorax
     direction 0.0131685 0.994241 0.106355   
     length 1.97461   
     axis 0 0 0   XYZ
    dof rx ry rz
    limits (-20.0 45.0)
           (-30.0 30.0)
           (-30.0 30.0)
  end
  begin
     id 14 
     name lowerneck
     direction -0.0281395 0.999325 0.023617   
     length 1.7959   
     axis 0 0 0   XYZ
    dof rx ry rz
    limits (-20.0 45.0)
           (-30.0 30.0)
           (-30.0 30.0)
  end
  begin
     id 15 
     name upperneck
     direction 0.0288721 0.991984 -0.123019   
     length 1.79917   
     axis 0 0 0   XYZ
    dof rx ry rz
    limits (-20.0 45.0)
           (-30.0 30.0)
           (-30.0 30.0)
  end
  begin
     id 16
     name head
     direction 0.0133797 0.998944 -0.0439492  
     length 1.80902  
     axis 0 0 0   XYZ
    dof rx ry rz
    limits (-20.0 45.0)
           (-30.0 30.0)
           (-30.0 30.0)
  end
  begin
     id 17 
     name lclavicle
     direction 0.919195 0.377107 0.113449  
     length 3.17815  
     axis 0 0 0   XYZ
    dof ry rz
    limits (-20.0 10.0)
           (0.0 20.0)
  end
  begin
     id 18 
     name lhumerus
     direction 1 -4.48959e-011 2.13129e-027   
     length 4.84137   
     axis 180 -30 -90   XYZ
    dof rx ry rz
    limits (-60.0 90.0)
           (-90.0 90.0)
           (-90.0 90.0)
  end
  begin
     id 19
     name lradius
     direction 1 -4.48957e-011 -6.30627e-028   
     length 3.2452   
     axis 180 -30 -90   XYZ
    dof rx
    limits (-10.0 170.0)
  end
  begin
     id 20
     name lwrist
     direction 1 -4.4901e-011 9.13299e-027   
     length 1.6226   
     axis -6.84618e-015 90 90   XYZ
    dof ry
    limits (-180.0 0.0)
 end
  begin
     id 21 
     name lhand
     direction 1 -4.48816e-011 1.82293e-026   
     length 0.521221   
     axis -1.16502e-014 90 90   XYZ
    dof rx rz
    limits (-90.0 90.0)
           (-45.0 45.0)
  end
  begin
     id 22 
     name lfingers
     direction 1 -4.49108e-011 3.65687e-026   
     length 0.420221   
     axis -2.33008e-014 90 90   XYZ
    dof rx
    limits (0.0 90.0)
  end
  begin
     id 23
     name lthumb
     direction 0.707107 -6.34943e-011 0.707107   
     length 0.603356   
     axis -90 45 5.69224e-014   XYZ
    dof rx rz
    limits (-45.0 45.0)
           (-45.0 45.0)
  end
  begin
     id 24 
     name rclavicle
     direction -0.90847 0.38596 0.160368   
     length 3.12973  
     axis 0 0 0   XYZ 
    dof ry rz
    limits (-10.0 20.0)
           (-20.0 0.0)
  end
  begin
     id 25 
     name rhumerus
     direction -1 -4.48974e-011 4.47268e-028  
     length 4.72284   
     axis 180 30 90   XYZ
    dof rx ry rz
    limits (-90.0 60.0)
           (-90.0 90.0)
           (-90.0 90.0)
  end
  begin
     id 26 
     name rradius
     direction -1 -4.48969e-011 3.43203e-027   
     length 3.23459   
     axis 180 30 90   XYZ
    dof rx
    limits (-10.0 170.0)
  end
  begin
     id 27 
     name rwrist
     direction -1 -4.48969e-011 9.12911e-027   
     length 1.6173   
     axis -6.84618e-015 -90 -90   XYZ
    dof ry
    limits (-180.0 0.0)
  end
  begin
     id 28
     name rhand
     direction -1 -4.49194e-011 1.83006e-026   
     length 0.307416   
     axis -1.16502e-014 -90 -90   XYZ
    dof rx rz
    limits (-90.0 90.0)
           (-45.0 45.0)
  end
  begin
     id 29
     name rfingers
     direction -1 -4.48423e-011 3.63103e-026   
     length 0.247847   
     axis -2.33008e-014 -90 -90   XYZ
    dof rx
    limits (0.0 90.0)
  end
  begin
     id 30
     name rthumb
     direction -0.707107 -6.34802e-011 0.707107   
     length 0.35586   
     axis -90 -45 -5.69224e-014   XYZ
    dof rx rz
    limits (-45.0 45.0)
           (-45.0 45.0)
  end
:hierarchy
  begin
    root lhipjoint rhipjoint lowerback
    lhipjoint lfemur
    lfemur ltibia
    ltibia lfoot
    lfoot ltoes
    rhipjoint rfemur
    rfemur rtibia
    rtibia rfoot
    rfoot rtoes
    lowerback upperback
    upperback thorax
    thorax lowerneck lclavicle rclavicle
    lowerneck upperneck
    upperneck head
    lclavicle lhumerus
    lhumerus lradius
    lradius lwrist
    lwrist lhand lthumb
    lhand lfingers
    rclavicle rhumerus
    rhumerus rradius
    rradius rwrist
    rwrist rhand rthumb
    rhand rfingers
  end

#!OML:ASF H:\Terrain\Patient Classification 1\Animal1\Tuesday\Animal1.ASF
:FULLY-SPECIFIED
:DEGREES
941
root 10.2142 15.2606 -8.09779 19.736 5.56058 4.63181
lowerback 32.6413 -3.68036 4.46379
upperback 16.4941 -3.23987 -2.32052
thorax 0.93098 -1.11164 -3.8631
lowerneck -5.29438 -2.56536 -5.20354
upperneck -18.6363 -1.56914 13.4819
head -4.44655 -1.17183 5.15753
rclavicle -7.95139e-016 -1.60022e-014
rhumerus 39.1917 36.797 -52.0028
rradius 33.3948
rwrist -23.1095
rhand -22.3265 26.9554
rfingers 7.12502
rthumb 4.09345 -2.98501
lclavicle -7.95139e-016 -1.60022e-014
lhumerus 34.9133 -32.593 46.9043
lradius 33.3254
lwrist -24.9442
lhand 6.78508 43.8019
lfingers 7.12502
lthumb 32.0711 70.9935
rfemur -61.7563 -3.42689 20.8926
rtibia 57.6177
rfoot -9.00489 -18.312
rtoes -0.374286
lfemur -51.487 11.8539 -14.2994
ltibia 67.9226
lfoot -7.64625 -6.34614
ltoes 2.45971
942
root 10.2105 15.2519 -8.0682 19.509 5.26296 4.64219
lowerback 32.7427 -3.74944 4.37858
upperback 16.4301 -3.34032 -2.09352
thorax 0.836445 -1.18505 -3.54635
lowerneck -5.35108 -2.46943 -5.4113
upperneck -18.5315 -1.4728 13.2839
head -4.41629 -1.09548 5.12489
rclavicle 1.27222e-014 -1.3418e-015
rhumerus 39.4717 37.3889 -50.8594
rradius 33.7851
rwrist -23.3786
rhand -22.0614 26.7997
rfingers 7.12502
rthumb 4.34945 -3.13565
lclavicle 1.27222e-014 -1.3418e-015
lhumerus 34.7148 -31.8596 48.1519
lradius 33.5238
lwrist -25.967
lhand 6.75885 44.0625
lfingers 7.12502
lthumb 32.0461 71.2592
rfemur -61.5608 -3.30328 20.9004
rtibia 57.8531
rfoot -9.1508 -18.2
rtoes -0.480271
lfemur -51.589 12.0485 -14.2259
ltibia 68.4008
lfoot -7.84419 -5.79724
ltoes -0.227491
943
root 10.2129 15.241 -8.0394 19.4018 4.91107 4.97797
lowerback 32.7842 -3.84122 4.01191
upperback 16.3976 -3.54853 -1.96941
thorax 0.792862 -1.32036 -3.16123
lowerneck -5.48646 -2.32466 -5.50133
upperneck -18.5803 -1.31767 12.9084
head -4.43174 -0.989975 5.01791
rclavicle -2.16675e-014 1.43125e-014
rhumerus 39.8657 37.9092 -49.8683
rradius 34.0508
rwrist -23.3943
rhand -22.41 27.0871
rfingers 7.12502
rthumb 4.01284 -2.85486
lclavicle -2.16675e-014 1.43125e-014
lhumerus 35.1394 -31.7929 48.1941
lradius 33.6459
lwrist -25.0687
lhand 5.30114 44.5705
lfingers 7.12502
lthumb 30.6572 72.0368
rfemur -61.5297 -3.40894 20.6071
rtibia 58.1108
rfoot -9.38006 -17.9696
rtoes -0.848068
lfemur -51.6678 12.0726 -14.5343
ltibia 68.7143
lfoot -8.1492 -5.21431
ltoes 0.0265584
944
root 10.2125 15.238 -8.01043 19.3146 4.44469 5.18579
lowerback 32.8548 -3.83314 3.65452
upperback 16.3309 -3.63543 -1.86823
thorax 0.710981 -1.39624 -2.83842
lowerneck -5.59663 -2.1943 -5.33123
upperneck -18.5653 -1.20561 12.4361
head -4.43285 -0.918132 4.83377
rclavicle -3.97569e-016 -1.04362e-014
rhumerus 40.0209 38.2436 -49.1557
rradius 34.3393
rwrist -23.0477
rhand -22.6197 27.7725
rfingers 7.12502
rthumb 3.81038 -2.17319
lclavicle -3.97569e-016 -1.04362e-014
lhumerus 35.7767 -31.7819 47.8239
lradius 33.856
lwrist -24.3932
lhand 4.48913 43.5832
lfingers 7.12502
lthumb 29.8826 71.1917
rfemur -61.5087 -3.28745 20.3866
rtibia 58.3492
rfoot -9.56768 -17.8276
rtoes -1.22632
lfemur -51.7498 12.1829 -14.6848
ltibia 68.8907
lfoot -8.22201 -4.57682
ltoes 3.5529
945
root 10.2117 15.2289 -7.98166 19.2504 4.00283 5.12921
lowerback 32.8781 -3.8336 3.46447
upperback 16.2101 -3.6903 -1.70175
thorax 0.588681 -1.45234 -2.54503
lowerneck -5.58408 -1.99302 -5.17477
upperneck -18.4672 -1.00857 11.9284
head -4.43593 -0.802327 4.63901
rclavicle -9.74045e-015 5.1684e-015
rhumerus 40.0598 38.6065 -48.6483
rradius 34.5738
rwrist -22.582
rhand -22.2308 28.0221
rfingers 7.12502
rthumb 4.1859 -1.91647
lclavicle -9.74045e-015 5.1684e-015
lhumerus 35.9091 -31.0575 48.4097
lradius 34.0517
lwrist -25.4636
lhand 5.60587 42.457
lfingers 7.12502
lthumb 30.9477 69.8684
rfemur -61.5458 -3.06848 20.4603
rtibia 58.5886
rfoot -9.54268 -17.6913
rtoes -1.39863
lfemur -51.9469 12.3796 -14.5374
ltibia 68.9885
lfoot -8.34242 -3.77233
ltoes 4.38066
946
root 10.2102 15.2162 -7.94964 19.1983 3.66933 5.21203
lowerback 32.7511 -3.86073 3.28394
upperback 16.1805 -3.77774 -1.51102
thorax 0.619954 -1.52011 -2.23113
lowerneck -5.70921 -1.85797 -5.26704
upperneck -18.4124 -0.87326 11.5638
head -4.41713 -0.705311 4.53399
rclavicle -3.67752e-015 1.72943e-014
rhumerus 40.5665 39.1858 -47.28
rradius 34.9808
rwrist -23.1891
rhand -22.4827 27.3832
rfingers 7.12502
rthumb 3.94261 -2.56008
lclavicle -3.67752e-015 1.72943e-014
lhumerus 35.9881 -30.2109 49.4919
lradius 34.0975
lwrist -26.6299
lhand 6.02161 42.2727
lfingers 7.12502
lthumb 31.3439 69.608
rfemur -61.5689 -3.0346 20.4423
rtibia 58.8109
rfoot -9.65354 -17.4834
rtoes -1.14088
lfemur -52.1005 12.5112 -14.5102
ltibia 68.9345
lfoot -8.68919 -3.107
ltoes 2.92268
947
root 10.2078 15.2113 -7.91488 19.2071 3.32946 5.38947
lowerback 32.5454 -3.8272 3.16445
upperback 16.1635 -3.77927 -1.37508
thorax 0.691553 -1.53766 -2.03494
lowerneck -5.75436 -1.84916 -5.46861
upperneck -18.4269 -0.870824 11.4727
head -4.41424 -0.685819 4.53963
rclavicle -1.0138e-014 1.57537e-014
rhumerus 41.028 39.5086 -45.8764
rradius 35.3408
rwrist -23.8769
rhand -23.2746 27.1375
rfingers 7.12502
rthumb 3.17796 -2.81854
lclavicle -1.0138e-014 1.57537e-014
lhumerus 36.5998 -30.1573 49.8603
lradius 34.0703
lwrist -26.42
lhand 4.73574 42.2278
lfingers 7.12502
lthumb 30.1179 69.7937
rfemur -61.5809 -3.00279 20.3049
rtibia 58.9769
rfoot -9.79079 -17.3695
rtoes -1.54485
lfemur -52.1601 12.6009 -14.5433
ltibia 68.6899
lfoot -9.12981 -2.7224
ltoes 2.59057
